<svg xmlns="http://www.w3.org/2000/svg" viewBox="309 294 395 395" width="1024" height="1024">
  <title>AuctoLabs Logo</title>
  <rect width="1024" height="1024" fill="#ffffff"/>
  <g id="dark-layer" fill="#1a1a2e">
    <path d="M 506.762 401.750 L 506.500 438.500 503.745 431.728 C 502.231 428.004, 494.851 411.691, 487.347 395.478 L 473.703 366 463.008 366 C 446.322 366, 435.598 370.736, 428.536 381.223 C 426.643 384.034, 420.278 397.397, 414.392 410.917 C 408.507 424.438, 398.766 446.750, 392.745 460.500 C 381.625 485.899, 326.227 613.399, 325.257 615.827 C 324.825 616.909, 328.395 617.093, 344.614 616.827 C 364.478 616.500, 364.507 616.497, 371 613.405 C 384.306 607.071, 385.903 604.510, 406.489 556.500 C 423.827 516.064, 422.126 518.947, 423.602 527.500 C 425.551 538.793, 428.553 545.457, 434.339 551.342 C 444.138 561.306, 450.924 562.994, 481.299 563.017 L 503.500 563.034 510.716 559.767 C 514.684 557.970, 517.947 555.966, 517.966 555.313 C 517.991 554.426, 509.824 554.046, 485.750 553.813 C 454.403 553.509, 453.369 553.435, 448.814 551.192 C 440.073 546.886, 433.533 537.297, 432.313 526.999 L 431.721 522 437.611 521.879 C 440.850 521.813, 456.212 521.860, 471.750 521.984 C 487.288 522.107, 500 521.985, 500 521.712 C 500 520.392, 475.256 466.802, 453.249 420.461 C 436.642 385.490, 436.523 385.184, 438.663 382.820 C 441.020 380.216, 452.804 374.711, 454.571 375.389 C 455.322 375.677, 456.202 375.482, 456.527 374.956 C 457.396 373.551, 466.584 373.791, 467.773 375.250 C 468.333 375.938, 474.965 389.775, 482.509 406 C 490.054 422.225, 500.901 445.287, 506.614 457.250 C 512.326 469.212, 517 479.178, 517 479.397 C 517 479.956, 544.960 539.293, 545.458 539.792 C 545.683 540.016, 549.232 537.849, 553.345 534.977 L 560.825 529.755 560.954 447.378 L 561.083 365 534.054 365 L 507.025 365 506.762 401.750 M 516.035 415.370 L 516.029 456.739 528.578 483.620 C 535.480 498.404, 543.236 515.111, 545.814 520.748 C 548.391 526.384, 550.837 530.996, 551.250 530.998 C 551.663 530.999, 552 495.675, 552 452.500 L 552 374 534.021 374 L 516.041 374 516.035 415.370 M 532.571 380.571 C 530.465 382.678, 530.592 384.592, 533 387 C 534.305 388.305, 535 390.333, 535 392.837 C 535 396.094, 535.681 397.313, 539.500 400.892 L 544 405.110 544 425.596 C 544 444.836, 543.872 446.254, 541.901 448.921 C 539.170 452.614, 540.674 456.295, 544.716 455.810 C 548.887 455.309, 549.846 452.635, 547.158 448.999 C 544.937 445.996, 544.883 445.367, 545.082 424.891 L 545.286 403.867 541.221 399.684 C 536.966 395.306, 534.982 388.173, 537.760 387.247 C 539.773 386.576, 539.256 381.207, 537.066 380.035 C 534.564 378.696, 534.431 378.712, 532.571 380.571 M 533.446 383.087 C 532.573 384.499, 534.501 386.427, 535.913 385.554 C 536.511 385.184, 537 384.234, 537 383.441 C 537 381.757, 534.426 381.501, 533.446 383.087 M 460 386.479 C 460 386.807, 465.174 397.897, 471.497 411.124 C 479.655 428.186, 482.829 435.831, 482.425 437.442 C 481.831 439.811, 484.095 443, 486.371 443 C 490.481 443, 491.338 436.459, 487.424 434.971 C 485.332 434.176, 482.701 429.591, 473.406 410.544 C 463.516 390.277, 460 383.965, 460 386.479 M 519.631 389.855 C 517.710 391.978, 518.331 394.572, 521.118 396.063 C 522.367 396.732, 523 398.161, 523 400.316 C 523 402.958, 524.118 404.669, 529 409.500 L 535 415.437 535 438.822 L 535 462.206 539.500 467.211 C 544.346 472.601, 544.866 474.277, 542.446 476.697 C 540.129 479.014, 540.969 483.425, 543.805 483.827 C 548.640 484.512, 550.818 479.387, 546.869 476.620 C 545.498 475.660, 544.964 474.535, 545.374 473.468 C 545.806 472.342, 544.508 470.147, 541.345 466.654 L 536.680 461.500 536.401 437.591 L 536.123 413.682 530.561 408.062 C 525.042 402.484, 523.146 397.264, 526 395.500 C 527.382 394.646, 527.256 390.656, 525.800 389.200 C 524.061 387.461, 521.558 387.726, 519.631 389.855 M 429.201 399 C 428.092 401.475, 422.155 415.200, 416.010 429.500 C 409.864 443.800, 398.280 470.350, 390.267 488.500 C 370.301 533.728, 354.994 569.953, 355.031 571.888 C 355.048 572.775, 356.119 575.218, 357.410 577.318 C 359.432 580.609, 359.628 581.709, 358.828 585.268 C 358.082 588.589, 358.251 590.050, 359.686 592.715 C 361.917 596.857, 360.634 599.500, 356.391 599.500 C 352.964 599.500, 351.745 595.044, 354.377 592.135 C 356.988 589.251, 357.509 582.455, 355.467 577.927 C 354.477 575.731, 353.353 574.286, 352.971 574.717 C 352.109 575.687, 339 606.402, 339 607.450 C 339 607.869, 344.288 608.029, 350.750 607.807 C 364.062 607.351, 370.397 605.296, 375.803 599.684 C 379.001 596.363, 385 585.778, 385 583.456 C 385 582.718, 385.857 580.626, 386.905 578.807 C 387.953 576.988, 392.046 567.850, 396.001 558.500 C 399.955 549.150, 407.873 530.890, 413.595 517.922 C 419.318 504.954, 424 493.618, 424 492.731 C 424 491.844, 424.386 490.879, 424.858 490.588 C 425.765 490.027, 433.678 472.943, 444.019 449.216 L 450.244 434.933 443.872 421.278 C 440.367 413.767, 436.087 404.670, 434.360 401.061 L 431.219 394.500 429.201 399 M 461 410.376 C 461 411.301, 466.842 423.783, 476.191 442.834 C 484.104 458.960, 486.434 464.660, 486.793 468.783 C 487.272 474.285, 489.239 476.613, 492.389 475.404 C 496.003 474.018, 494.907 467, 491.077 467 C 489.702 467, 488.422 465.005, 486.107 459.250 C 482.232 449.619, 482.179 450.028, 487.168 451.149 C 493.974 452.678, 496.990 454.895, 495.958 457.610 C 494.554 461.302, 497.933 464.807, 501.383 463.235 C 502.949 462.522, 504 461.231, 504 460.021 C 504 457.624, 500.351 453.665, 498.943 454.535 C 498.402 454.870, 496.623 454.020, 494.991 452.646 C 493.359 451.272, 489.529 449.590, 486.481 448.908 L 480.938 447.668 471.442 428.834 C 463.232 412.550, 461 408.605, 461 410.376 M 426.200 422.200 C 424.692 423.708, 424.657 426.257, 426.123 427.723 C 426.954 428.554, 426.693 429.622, 425.123 431.827 C 423.470 434.149, 423.016 436.212, 423.070 441.154 C 423.177 450.826, 424.844 453.174, 424.930 443.774 C 424.993 436.790, 426.979 430.225, 429 430.316 C 429.275 430.328, 430.512 429.796, 431.750 429.134 C 435.777 426.979, 434.123 421, 429.500 421 C 428.345 421, 426.860 421.540, 426.200 422.200 M 430.571 438.571 C 428.412 440.731, 428.598 442.274, 431.331 444.841 C 433.590 446.963, 433.714 446.974, 435.331 445.187 C 437.569 442.714, 437.442 439.307, 435.066 438.035 C 432.564 436.696, 432.431 436.712, 430.571 438.571 M 484.431 438.112 C 483.569 439.507, 486.172 441.228, 487.355 440.045 C 488.316 439.084, 487.390 437, 486 437 C 485.515 437, 484.809 437.500, 484.431 438.112 M 432.074 439.954 C 430.496 440.930, 431.505 443, 433.559 443 C 435.079 443, 435.562 440.465, 434.202 439.625 C 433.763 439.354, 432.806 439.502, 432.074 439.954 M 448.685 460.213 C 445.068 468.621, 438.529 483.600, 434.154 493.500 C 429.778 503.400, 426.405 511.837, 426.658 512.250 C 427.193 513.122, 484.380 513.286, 485.248 512.419 C 485.567 512.099, 483.668 507.037, 481.028 501.169 C 472.581 482.401, 455.753 445.510, 455.502 445.213 C 455.369 445.056, 452.301 451.806, 448.685 460.213 M 542.624 451.538 C 541.988 453.195, 544.247 454.583, 545.908 453.557 C 547.231 452.739, 546.146 450, 544.500 450 C 543.793 450, 542.948 450.692, 542.624 451.538 M 498.658 457.675 C 498.296 458.037, 498 458.933, 498 459.667 C 498 461.156, 500.578 461.492, 501.430 460.113 C 502.111 459.012, 499.562 456.771, 498.658 457.675 M 409.200 462.200 C 407.599 463.801, 407.680 466.489, 409.372 467.894 C 410.126 468.520, 410.973 471.068, 411.253 473.557 C 411.534 476.045, 412.547 478.947, 413.505 480.005 C 415.607 482.328, 416.324 480.383, 401.560 512.406 C 395.752 525.005, 391 535.692, 391 536.156 C 391 538.816, 392.990 535.854, 396.670 527.719 C 398.963 522.649, 404.543 510.488, 409.069 500.695 L 417.300 482.890 415.150 478.586 C 412.621 473.523, 412.431 470.717, 414.500 469 C 416.494 467.345, 416.439 462.383, 414.418 461.607 C 412.044 460.696, 410.532 460.868, 409.200 462.200 M 624.080 467.750 C 620.343 470.805, 620.215 476.368, 623.800 479.954 C 625.475 481.629, 627.578 483, 628.473 483 C 631.415 483, 636.068 479.951, 637.045 477.383 C 639.936 469.778, 630.331 462.641, 624.080 467.750 M 489 471.500 C 489 472.530, 489.655 473.020, 490.750 472.810 C 492.858 472.404, 492.725 470.629, 490.553 470.177 C 489.647 469.988, 489 470.539, 489 471.500 M 586.357 476.992 C 580.739 479.259, 579.329 486.861, 583.589 491.923 C 587.333 496.373, 593.927 496.360, 598.099 491.894 C 605.472 484.002, 596.669 472.830, 586.357 476.992 M 543.510 478.984 C 542.773 480.177, 543.709 482, 545.059 482 C 546.276 482, 546.284 479.293, 545.069 478.543 C 544.557 478.226, 543.856 478.425, 543.510 478.984 M 394.011 498.487 C 393.332 499.305, 393.033 500.995, 393.346 502.243 C 393.730 503.772, 391.646 509.712, 386.958 520.454 C 383.131 529.222, 380 536.756, 380 537.198 C 380 539.438, 381.717 537.460, 383.429 533.246 C 389.786 517.609, 395.984 505.957, 398.443 505.022 C 400.174 504.364, 401 503.298, 401 501.725 C 401 497.434, 396.583 495.388, 394.011 498.487 M 395.446 500.087 C 395.077 500.685, 395.236 501.636, 395.800 502.200 C 397.062 503.462, 399 502.396, 399 500.441 C 399 498.757, 396.426 498.501, 395.446 500.087 M 581.299 517.503 C 578.631 519.372, 576.654 525.106, 577.419 528.753 C 577.931 531.193, 577.239 532.131, 571.237 537.140 C 552.976 552.379, 523.107 569.824, 497.736 580.067 C 491.815 582.457, 487.125 584.883, 487.314 585.457 C 489.865 593.221, 545.203 565.312, 573.250 542.118 C 578.062 538.138, 582.479 535.178, 583.066 535.541 C 583.653 535.903, 585.713 536.200, 587.645 536.200 C 596.155 536.200, 600.268 524.054, 593.799 518.028 C 591.165 515.573, 584.456 515.292, 581.299 517.503 M 444.046 524.445 C 441.022 528.088, 445.992 533.408, 449.315 530.085 C 449.912 529.488, 452.963 529, 456.096 529 C 461.332 529, 462.036 529.277, 464.804 532.430 L 467.815 535.859 488.408 535.275 C 499.733 534.954, 509 534.287, 509 533.792 C 509 533.284, 500.244 532.967, 488.867 533.063 L 468.734 533.234 466.294 530.117 C 464.066 527.269, 463.356 527, 458.083 527 C 453.580 527, 451.912 526.560, 450.500 525 C 448.371 522.647, 445.727 522.420, 444.046 524.445 M 445.446 526.087 C 444.416 527.755, 446.733 529.667, 448.113 528.287 C 449.267 527.133, 448.545 525, 447 525 C 446.515 525, 445.816 525.489, 445.446 526.087 M 451.200 539.200 C 449.561 540.839, 449.692 543.500, 451.487 544.989 C 453.115 546.340, 458 545.584, 458 543.981 C 458 543.372, 465.613 543, 478.059 543 C 491.177 543, 497.904 542.654, 497.500 542 C 497.122 541.389, 489.364 541, 477.563 541 C 461.611 541, 458.028 540.739, 457 539.500 C 455.501 537.694, 452.844 537.556, 451.200 539.200 M 452.446 541.087 C 451.416 542.755, 453.733 544.667, 455.113 543.287 C 456.267 542.133, 455.545 540, 454 540 C 453.515 540, 452.816 540.489, 452.446 541.087 M 560.263 561.355 C 556.109 564.108, 556.036 563.558, 562.610 579.174 C 569.562 595.687, 572.158 600.846, 575.534 604.857 L 578.178 608 566.626 608 C 552.812 608, 546.729 606.154, 539.461 599.757 C 535.113 595.929, 529.003 585.704, 529.001 582.250 C 529 580.696, 528.488 580.694, 524.242 582.229 C 521.162 583.343, 520.898 583.743, 521.437 586.479 C 523.497 596.939, 532.005 607.410, 542.762 612.728 L 550.394 616.500 619.197 616.777 L 688 617.053 688 591.527 L 688 566 629.292 566 L 570.584 566 567.042 562.605 L 563.500 559.209 560.263 561.355 M 570 574.271 C 570 574.538, 570.721 576.498, 571.602 578.628 C 577.998 594.091, 582.299 600.331, 589.873 605.134 L 594.392 608 636.696 608 L 679 608 679 591.500 L 679 575 626.082 575 C 596.977 575, 572.452 574.727, 571.582 574.393 C 570.712 574.059, 570 574.004, 570 574.271 M 647.200 580.200 C 644.488 582.912, 646.610 587, 650.731 587 C 652.014 587, 653.322 586.325, 653.638 585.500 C 654.520 583.204, 662.578 583.523, 665.699 585.978 C 668.999 588.573, 672.272 587.130, 671.810 583.284 C 671.324 579.237, 668.579 578.108, 665.730 580.783 C 662.609 583.716, 656.158 583.833, 653.732 581 C 651.805 578.749, 648.995 578.405, 647.200 580.200 M 444.150 583.527 C 436.461 589.997, 440.935 602, 451.036 602 C 456.105 602, 461.388 595.916, 460.508 591.092 C 458.806 581.769, 450.696 578.019, 444.150 583.527 M 649.409 582.376 C 649.048 583.317, 649.041 584.374, 649.393 584.726 C 649.745 585.079, 650.566 584.834, 651.217 584.183 C 652.119 583.281, 652.122 582.722, 651.233 581.833 C 650.343 580.943, 649.909 581.072, 649.409 582.376 M 666.446 582.087 C 665.416 583.755, 667.733 585.667, 669.113 584.287 C 670.267 583.133, 669.545 581, 668 581 C 667.515 581, 666.816 581.489, 666.446 582.087 M 611 587 C 611 587.615, 615.928 588, 623.784 588 L 636.568 588 642 593.500 C 647.162 598.727, 647.683 599, 652.494 599 C 656.318 599, 657.974 599.489, 659.268 601 C 661.328 603.406, 663.313 603.544, 665.429 601.429 C 667.308 599.550, 667.430 597.830, 665.800 596.200 C 664.351 594.751, 659 594.593, 659 596 C 659 596.550, 656.622 597, 653.716 597 C 648.636 597, 648.222 596.787, 643 591.500 L 637.568 586 624.284 586 C 616.095 586, 611 586.384, 611 587 M 368.390 588.427 C 367.267 591.353, 368.452 594.493, 370.805 594.827 C 373.357 595.188, 376 593.470, 376 591.449 C 376 587.960, 369.551 585.400, 368.390 588.427 M 370.345 590.543 C 369.591 592.509, 370.483 593.412, 372.440 592.661 C 373.319 592.324, 373.716 591.423, 373.376 590.538 C 372.618 588.562, 371.104 588.565, 370.345 590.543 M 627.438 593.471 C 625.976 594.577, 622.187 594.961, 612 595.038 C 604.575 595.095, 597.600 595.527, 596.500 596 C 595.261 596.532, 600.339 596.886, 609.840 596.930 C 624.424 596.997, 625.268 597.109, 626.972 599.214 C 629.312 602.103, 634.344 600.369, 633.818 596.855 C 633.315 593.493, 629.842 591.652, 627.438 593.471 M 355.173 595.659 C 355.594 597.848, 358.500 598.157, 358.500 596.014 C 358.500 595.196, 357.672 594.368, 356.659 594.173 C 355.323 593.916, 354.916 594.323, 355.173 595.659 M 628.173 596.659 C 628.594 598.848, 631.500 599.157, 631.500 597.014 C 631.500 596.196, 630.672 595.368, 629.659 595.173 C 628.323 594.916, 627.916 595.323, 628.173 596.659 M 660.570 597.887 C 659.889 598.988, 662.438 601.229, 663.342 600.325 C 663.704 599.963, 664 599.067, 664 598.333 C 664 596.844, 661.422 596.508, 660.570 597.887" stroke="none" fill="#1a1a2e" fill-rule="evenodd"/>
  </g>
  <g id="blue-layer" fill="#3ab4d4">
    <path d="M 451.660 390.442 C 451.235 391.551, 451.408 391.866, 452.181 391.388 C 452.955 390.910, 453.128 391.225, 452.701 392.336 C 451.866 394.513, 452.913 397.172, 454.275 396.330 C 454.919 395.932, 455.113 396.264, 454.765 397.169 C 454.430 398.043, 454.752 398.667, 455.539 398.667 C 456.662 398.667, 456.656 398.111, 455.499 395.343 C 452.948 389.238, 452.394 388.531, 451.660 390.442 M 517 413.997 C 517 414.786, 519.138 417.601, 521.750 420.254 L 526.500 425.077 526.664 451.788 C 526.848 481.754, 526.884 482.485, 528 479 C 528.440 477.625, 528.845 464.786, 528.900 450.469 L 529 424.437 523 418.500 C 519.700 415.234, 517 413.208, 517 413.997 M 432.185 460.500 C 432.082 473.102, 432.214 474.250, 433.500 472 C 434.527 470.204, 434.906 466.264, 434.846 458 C 434.796 451.060, 434.479 447.689, 434.046 449.500 L 433.329 452.500 432.814 449.500 C 432.531 447.850, 432.248 452.800, 432.185 460.500 M 423.330 471.500 C 423.314 481.950, 423.598 488.475, 423.962 486 L 424.624 481.500 425.185 485 C 425.493 486.925, 425.521 486.025, 425.246 483 C 424.970 479.975, 424.433 471.875, 424.052 465 C 423.375 452.780, 423.358 452.925, 423.330 471.500 M 601.400 487.650 C 601.400 489.658, 601.572 490.783, 601.783 490.150 C 602.367 488.398, 604 488.779, 604 490.667 C 604 491.583, 604.270 492.063, 604.600 491.734 C 605.347 490.986, 603.110 484, 602.122 484 C 601.725 484, 601.400 485.642, 601.400 487.650 M 601.079 496.583 C 601.127 497.748, 601.364 497.985, 601.683 497.188 C 601.972 496.466, 601.936 495.603, 601.604 495.271 C 601.272 494.939, 601.036 495.529, 601.079 496.583 M 604.158 499 C 604.158 500.375, 604.385 500.938, 604.662 500.250 C 604.940 499.563, 604.940 498.438, 604.662 497.750 C 604.385 497.063, 604.158 497.625, 604.158 499 M 600 501 C 600 501.733, 600.300 502.033, 600.667 501.667 C 601.033 501.300, 601.033 500.700, 600.667 500.333 C 600.300 499.967, 600 500.267, 600 501 M 603 503 C 603 503.733, 603.300 504.033, 603.667 503.667 C 604.033 503.300, 604.033 502.700, 603.667 502.333 C 603.300 501.967, 603 502.267, 603 503 M 602 506 C 602 506.733, 602.300 507.033, 602.667 506.667 C 603.033 506.300, 603.033 505.700, 602.667 505.333 C 602.300 504.967, 602 505.267, 602 506 M 596.405 508.155 C 595.962 508.870, 596.130 509.038, 596.845 508.595 C 597.480 508.203, 598 507.684, 598 507.441 C 598 506.607, 597.117 507.002, 596.405 508.155 M 594.405 511.155 C 593.962 511.870, 594.130 512.038, 594.845 511.595 C 595.480 511.203, 596 510.684, 596 510.441 C 596 509.607, 595.117 510.002, 594.405 511.155 M 599.405 511.155 C 598.962 511.870, 599.130 512.038, 599.845 511.595 C 600.480 511.203, 601 510.684, 601 510.441 C 601 509.607, 600.117 510.002, 599.405 511.155 M 591.405 515.155 C 590.962 515.870, 591.130 516.038, 591.845 515.595 C 592.998 514.883, 593.393 514, 592.559 514 C 592.316 514, 591.797 514.520, 591.405 515.155 M 521 534.042 C 529.259 535.184, 542 535.158, 542 534 C 542 533.377, 537.011 533.053, 528.750 533.141 C 518.127 533.254, 516.591 533.432, 521 534.042 M 391 539 C 391 539.733, 391.300 540.033, 391.667 539.667 C 392.033 539.300, 392.033 538.700, 391.667 538.333 C 391.300 537.967, 391 538.267, 391 539 M 376.162 543.543 C 374.487 547.220, 374.807 548.005, 376.618 544.662 C 377.464 543.100, 377.969 541.636, 377.741 541.407 C 377.512 541.179, 376.802 542.140, 376.162 543.543 M 510 541.935 L 522.500 542.438 510 543.016 L 497.500 543.595 513.691 543.797 C 523.414 543.919, 530.124 543.609, 530.488 543.020 C 530.848 542.437, 533.567 542.299, 537.204 542.679 C 541.714 543.150, 543.127 543.014, 542.598 542.159 C 542.083 541.326, 535.641 541.061, 519.691 541.216 C 501.213 541.396, 499.591 541.517, 510 541.935 M 387 543 C 387 543.733, 387.300 544.033, 387.667 543.667 C 388.033 543.300, 388.033 542.700, 387.667 542.333 C 387.300 541.967, 387 542.267, 387 543 M 381.677 555.422 C 379.655 560.079, 378 564.343, 378 564.897 C 378 567.073, 380.349 570.903, 381.316 570.305 C 381.943 569.917, 382.085 570.337, 381.681 571.388 C 381.255 572.499, 381.409 572.865, 382.119 572.427 C 382.856 571.971, 383 572.526, 382.559 574.125 C 382.013 576.106, 382.084 576.214, 382.987 574.777 C 383.815 573.459, 383.590 572.117, 382.029 569.057 L 379.989 565.059 384.003 556.371 C 386.211 551.593, 387.788 547.455, 387.508 547.175 C 387.229 546.895, 386.993 547.304, 386.985 548.083 C 386.973 549.187, 386.791 549.219, 386.162 548.228 C 385.631 547.392, 384.094 549.858, 381.677 555.422 M 385 550 C 385 550.733, 385.300 551.033, 385.667 550.667 C 386.033 550.300, 386.033 549.700, 385.667 549.333 C 385.300 548.967, 385 549.267, 385 550 M 369.637 558.514 L 365.920 567.072 367.646 572.545 C 368.595 575.555, 369.666 577.541, 370.026 576.957 C 370.387 576.374, 370.713 577.995, 370.752 580.560 C 370.791 583.124, 371.284 585.684, 371.848 586.248 C 372.549 586.949, 372.867 586.202, 372.851 583.887 C 372.819 579.219, 371.058 573.846, 369.812 574.616 C 369.163 575.017, 369.033 574.470, 369.460 573.125 C 369.831 571.956, 369.716 571, 369.205 571 C 367.778 571, 368.573 567.075, 371.228 561 C 372.551 557.975, 373.466 554.600, 373.262 553.500 C 372.993 552.042, 373.140 551.861, 373.807 552.834 C 374.539 553.901, 374.854 553.822, 375.384 552.441 C 375.749 551.491, 375.811 550.478, 375.524 550.190 C 375.236 549.902, 374.993 550.304, 374.985 551.083 C 374.973 552.187, 374.791 552.219, 374.162 551.228 C 373.632 550.392, 372.079 552.892, 369.637 558.514 M 409.408 571.566 C 407.838 574.246, 407.101 576.501, 407.626 577.026 C 408.150 577.550, 409.406 575.664, 410.668 572.459 C 413.288 565.802, 412.933 565.551, 409.408 571.566 M 383 578 C 383 578.733, 383.300 579.033, 383.667 578.667 C 384.033 578.300, 384.033 577.700, 383.667 577.333 C 383.300 576.967, 383 577.267, 383 578 M 406.079 579.583 C 406.127 580.748, 406.364 580.985, 406.683 580.188 C 406.972 579.466, 406.936 578.603, 406.604 578.271 C 406.272 577.939, 406.036 578.529, 406.079 579.583 M 384 581 C 384 581.733, 384.300 582.033, 384.667 581.667 C 385.033 581.300, 385.033 580.700, 384.667 580.333 C 384.300 579.967, 384 580.267, 384 581 M 408 585 C 408 585.733, 408.300 586.033, 408.667 585.667 C 409.033 585.300, 409.033 584.700, 408.667 584.333 C 408.300 583.967, 408 584.267, 408 585 M 406 587 C 406 587.733, 406.300 588.033, 406.667 587.667 C 407.033 587.300, 407.033 586.700, 406.667 586.333 C 406.300 585.967, 406 586.267, 406 587 M 576.333 586.667 C 576.700 587.033, 577.300 587.033, 577.667 586.667 C 578.033 586.300, 577.733 586, 577 586 C 576.267 586, 575.967 586.300, 576.333 586.667 M 410.606 589.152 C 411.648 590.611, 412.700 591.611, 412.944 591.374 C 413.189 591.138, 412.337 589.944, 411.050 588.722 L 408.712 586.500 410.606 589.152 M 472.333 588.667 C 472.700 589.033, 473.300 589.033, 473.667 588.667 C 474.033 588.300, 473.733 588, 473 588 C 472.267 588, 471.967 588.300, 472.333 588.667 M 468.333 589.667 C 468.700 590.033, 469.300 590.033, 469.667 589.667 C 470.033 589.300, 469.733 589, 469 589 C 468.267 589, 467.967 589.300, 468.333 589.667 M 409 592.500 C 410.292 593.875, 411.574 595, 411.849 595 C 412.124 595, 411.292 593.875, 410 592.500 C 408.708 591.125, 407.426 590, 407.151 590 C 406.876 590, 407.708 591.125, 409 592.500 M 461.333 591.667 C 461.700 592.033, 462.300 592.033, 462.667 591.667 C 463.033 591.300, 462.733 591, 462 591 C 461.267 591, 460.967 591.300, 461.333 591.667 M 478.333 591.667 C 478.700 592.033, 479.300 592.033, 479.667 591.667 C 480.033 591.300, 479.733 591, 479 591 C 478.267 591, 477.967 591.300, 478.333 591.667 M 474.333 592.667 C 474.700 593.033, 475.300 593.033, 475.667 592.667 C 476.033 592.300, 475.733 592, 475 592 C 474.267 592, 473.967 592.300, 474.333 592.667 M 418.333 593.667 C 418.700 594.033, 419.300 594.033, 419.667 593.667 C 420.033 593.300, 419.733 593, 419 593 C 418.267 593, 417.967 593.300, 418.333 593.667 M 470.333 593.667 C 470.700 594.033, 471.300 594.033, 471.667 593.667 C 472.033 593.300, 471.733 593, 471 593 C 470.267 593, 469.967 593.300, 470.333 593.667 M 421.750 594.662 C 422.438 594.940, 423.563 594.940, 424.250 594.662 C 424.938 594.385, 424.375 594.158, 423 594.158 C 421.625 594.158, 421.063 594.385, 421.750 594.662 M 466.333 594.667 C 466.700 595.033, 467.300 595.033, 467.667 594.667 C 468.033 594.300, 467.733 594, 467 594 C 466.267 594, 465.967 594.300, 466.333 594.667 M 431.768 595.725 C 433.565 595.947, 436.265 595.943, 437.768 595.715 C 439.271 595.486, 437.800 595.304, 434.500 595.310 C 431.200 595.315, 429.971 595.502, 431.768 595.725 M 461.333 595.667 C 461.700 596.033, 462.300 596.033, 462.667 595.667 C 463.033 595.300, 462.733 595, 462 595 C 461.267 595, 460.967 595.300, 461.333 595.667 M 581 596 C 581 596.550, 581.702 597, 582.559 597 C 583.416 597, 583.840 596.550, 583.500 596 C 583.160 595.450, 582.459 595, 581.941 595 C 581.423 595, 581 595.450, 581 596 M 415.333 596.667 C 415.700 597.033, 416.300 597.033, 416.667 596.667 C 417.033 596.300, 416.733 596, 416 596 C 415.267 596, 414.967 596.300, 415.333 596.667 M 418.333 597.667 C 418.700 598.033, 419.300 598.033, 419.667 597.667 C 420.033 597.300, 419.733 597, 419 597 C 418.267 597, 417.967 597.300, 418.333 597.667 M 422.750 598.662 C 423.438 598.940, 424.563 598.940, 425.250 598.662 C 425.938 598.385, 425.375 598.158, 424 598.158 C 422.625 598.158, 422.063 598.385, 422.750 598.662" stroke="none" fill="#3ab4d4" fill-rule="evenodd"/>
  </g>
</svg>
